<?xml version="1.0" encoding="UTF-8" standalone="no"?>
<!-- Generator: Adobe Illustrator 19.0.0, SVG Export Plug-In . SVG Version: 6.00 Build 0)  -->

<svg
   xmlns:dc="http://purl.org/dc/elements/1.1/"
   xmlns:cc="http://creativecommons.org/ns#"
   xmlns:rdf="http://www.w3.org/1999/02/22-rdf-syntax-ns#"
   xmlns:svg="http://www.w3.org/2000/svg"
   xmlns="http://www.w3.org/2000/svg"
   xmlns:sodipodi="http://sodipodi.sourceforge.net/DTD/sodipodi-0.dtd"
   xmlns:inkscape="http://www.inkscape.org/namespaces/inkscape"
   version="1.1"
   id="Layer_1"
   x="0px"
   y="0px"
   viewBox="0 0 499.2 499.2"
   style="enable-background:new 0 0 499.2 499.2;"
   xml:space="preserve"
   sodipodi:docname="back.svg"
   inkscape:version="0.92.4 5da689c313, 2019-01-14"><metadata
   id="metadata45"><rdf:RDF><cc:Work
       rdf:about=""><dc:format>image/svg+xml</dc:format><dc:type
         rdf:resource="http://purl.org/dc/dcmitype/StillImage" /><dc:title></dc:title></cc:Work></rdf:RDF></metadata><defs
   id="defs43" /><sodipodi:namedview
   pagecolor="#ffffff"
   bordercolor="#666666"
   borderopacity="1"
   objecttolerance="10"
   gridtolerance="10"
   guidetolerance="10"
   inkscape:pageopacity="0"
   inkscape:pageshadow="2"
   inkscape:window-width="1440"
   inkscape:window-height="843"
   id="namedview41"
   showgrid="false"
   inkscape:zoom="1.337157"
   inkscape:cx="147.89462"
   inkscape:cy="182.32286"
   inkscape:window-x="0"
   inkscape:window-y="0"
   inkscape:window-maximized="1"
   inkscape:current-layer="Layer_1" />
<path
   style="fill:#047005;fill-opacity:1"
   d="M489.6,229.6c-10.4,20.8-29.6,37.6-52.8,44c19.2,45.6,21.6,96.8,2.4,142.4c34.4-11.2,60-43.2,60-81.6  v-68.8C499.2,253.6,495.2,241.6,489.6,229.6z"
   id="path2" />
<path
   style="fill:#043705;fill-opacity:1"
   d="M413.6,177.6h-228c-47.2,0-86.4,38.4-86.4,85.6v58.4h232l0,0h82.4c33.6,0,64,20.8,77.6,49.6  c6.4-14.4,8-25.6,8-39.2v-68.8C499.2,216,460.8,177.6,413.6,177.6z"
   id="path4" />
<polygon
   style="fill:#047005;fill-opacity:1"
   points="123.2,249.6 219.2,153.6 219.2,30.4 0,249.6 219.2,468.8 219.2,345.6 "
   id="polygon6" />
<polyline
   style="fill:#043705;fill-opacity:1"
   points="1.6,249.6 219.2,468.8 219.2,345.6 124.8,249.6 219.2,153.6 "
   id="polyline8" />
<g
   id="g10">
</g>
<g
   id="g12">
</g>
<g
   id="g14">
</g>
<g
   id="g16">
</g>
<g
   id="g18">
</g>
<g
   id="g20">
</g>
<g
   id="g22">
</g>
<g
   id="g24">
</g>
<g
   id="g26">
</g>
<g
   id="g28">
</g>
<g
   id="g30">
</g>
<g
   id="g32">
</g>
<g
   id="g34">
</g>
<g
   id="g36">
</g>
<g
   id="g38">
</g>
</svg>