<?xml version="1.0" encoding="iso-8859-1"?>
<!-- Generator: Adobe Illustrator 19.0.0, SVG Export Plug-In . SVG Version: 6.00 Build 0)  -->
<svg version="1.1" id="Capa_1" xmlns="http://www.w3.org/2000/svg" xmlns:xlink="http://www.w3.org/1999/xlink" x="0px" y="0px"
	 viewBox="0 0 512 512" style="enable-background:new 0 0 512 512;" xml:space="preserve">
<path style="fill:#FF0019;" d="M469.464,67.845c-56.715-56.714-148.667-56.714-205.381,0L256,75.927L235.984,234L256,486.691
	l213.464-213.465c13.776-13.776,24.206-29.631,31.289-46.555c2.012-4.808-6.254-9.701-4.781-14.658
	c1.502-5.057,12.731-10.18,13.671-15.343C517.89,151.357,504.497,102.878,469.464,67.845z"/>
<path style="fill:#FF4E0A;" d="M247.918,67.845c-56.714-56.714-148.667-56.714-205.382,0C7.503,102.878-5.89,151.356,2.357,196.669
	c0.931,5.113,12.145,10.185,13.626,15.194c1.482,5.008-6.769,9.952-4.737,14.809c7.084,16.924,17.513,32.779,31.289,46.555
	L256,486.691V75.927L247.918,67.845z"/>
<path style="fill:#DCE4EC;" d="M306.128,196.667l-31.648,42.41L256,205.836l-10.008,20.161L256,267.579l14.79,26.605l50.383-67.517
	h179.571c4.065-9.712,7.028-19.775,8.889-30L306.128,196.667L306.128,196.667z"/>
<path style="fill:#F7F7F8;" d="M225.016,150.1l-50.279,92.972L107.48,93.536L57.193,196.667H2.368
	c1.861,10.225,4.824,20.288,8.889,30h64.684l30.443-62.433l65.879,146.475l53.115-98.215L256,267.579v-61.743L225.016,150.1z"/>
<g>
</g>
<g>
</g>
<g>
</g>
<g>
</g>
<g>
</g>
<g>
</g>
<g>
</g>
<g>
</g>
<g>
</g>
<g>
</g>
<g>
</g>
<g>
</g>
<g>
</g>
<g>
</g>
<g>
</g>
</svg>
