<svg id="Layer_3" enable-background="new 0 0 64 64" height="512" viewBox="0 0 64 64" width="512" xmlns="http://www.w3.org/2000/svg"><path d="m4 24h56v38h-56z" fill="#ccc"/><path d="m4 24h53v38h-53z" fill="#f2f2f2"/><path d="m4 52h6v10h-6z" fill="#bde66c"/><path d="m10 52h6v10h-6z" fill="#8ead51"/><path d="m16 52h6v10h-6z" fill="#bde66c"/><path d="m42 52h6v10h-6z" fill="#bde66c"/><path d="m48 52h6v10h-6z" fill="#8ead51"/><path d="m54 52h6v10h-6z" fill="#bde66c"/><path d="m32 44h10v18h-10z" fill="#8b6d5e"/><path d="m32 44h7v18h-7z" fill="#b9917d"/><path d="m22 44h10v18h-10z" fill="#8b6d5e"/><path d="m22 44h7v18h-7z" fill="#b9917d"/><path d="m32 28h20v10h-20z" fill="#78adbf"/><path d="m32 28h17v10h-17z" fill="#a0e6ff"/><path d="m12 28h20v10h-20z" fill="#78adbf"/><path d="m12 28h17v10h-17z" fill="#a0e6ff"/><path d="m2 10h60v14h-60z" fill="#8ead51"/><path d="m2 10h56v14h-56z" fill="#bde66c"/><circle cx="32" cy="11" fill="#cb9e78" r="9"/><path d="m27.707 11.293 4.586-4.586c.453-.453 1.067-.707 1.707-.707.64 0 1.254.254 1.707.707l.586.586c.453.453.707 1.067.707 1.707 0 .64-.254 1.254-.707 1.707l-4.586 4.586c-.453.453-1.067.707-1.707.707-.64 0-1.254-.254-1.707-.707l-.586-.586c-.453-.453-.707-1.067-.707-1.707 0-.64.254-1.254.707-1.707z" fill="#fff"/><path d="m34 13-2.293 2.293c-.453.453-1.067.707-1.707.707-.64 0-1.254-.254-1.707-.707l-.586-.586c-.453-.453-.707-1.067-.707-1.707 0-.64.254-1.254.707-1.707l2.293-2.293z" fill="#ff8087"/><g fill="#f2f2f2"><path d="m27 51h2v4h-2z"/><path d="m35 51h2v4h-2z"/><path d="m15.172 32h5.657v2h-5.657z" transform="matrix(.707 -.707 .707 .707 -18.062 22.393)"/><path d="m23.172 32h5.657v2h-5.657z" transform="matrix(.707 -.707 .707 .707 -15.719 28.05)"/><path d="m35.172 32h5.657v2h-5.657z" transform="matrix(.707 -.707 .707 .707 -12.205 36.536)"/><path d="m43.172 32h5.657v2h-5.657z" transform="matrix(.707 -.707 .707 .707 -9.861 42.192)"/></g></svg>