<?xml version="1.0" encoding="utf-8"?>
<!-- Generator: Adobe Illustrator 22.0.1, SVG Export Plug-In . SVG Version: 6.00 Build 0)  -->
<svg xmlns="http://www.w3.org/2000/svg" xmlns:xlink="http://www.w3.org/1999/xlink" version="1.1" id="Layer_1" x="0px" y="0px" viewBox="0 0 256 256" style="enable-background:new 0 0 256 256;" xml:space="preserve" width="512" height="512">
<style type="text/css">
	.st0{fill:#3A312A;}
	.st1{fill:#D7E057;}
	.st2{fill:#F16C7A;}
	.st3{fill:#FCE8CB;}
	.st4{fill:#87796F;}
	.st5{fill:#8AC6DD;}
	.st6{fill:#CE4E61;}
	.st7{fill:#6CA8BF;}
	.st8{fill:#B9C239;}
	.st9{fill:#DECAAD;}
	.st10{fill:#695B51;}
	.st11{fill-rule:evenodd;clip-rule:evenodd;fill:#FCE8CB;}
	.st12{fill:#F5978A;}
	.st13{fill:#68A8BC;}
	.st14{fill:#B9BC39;}
	.st15{fill:#6B5B51;}
	.st16{fill:#D34E5C;}
	.st17{fill-rule:evenodd;clip-rule:evenodd;fill:#87796F;}
	.st18{fill-rule:evenodd;clip-rule:evenodd;fill:#F16C7A;}
</style>
<g>
	<g>
		<g>
			<path class="st5" d="M209.361,16.5H45.975c-16.074,0-29.662,12.603-30.102,28.671C15.416,61.842,28.794,75.5,45.361,75.5h2.849     c0.874,0,1.721,0.298,2.402,0.846l35.37,28.429c1.805,1.451,4.404-0.289,3.751-2.511l-6.426-21.848     c-0.722-2.456,1.119-4.916,3.678-4.916h121.762c16.074,0,29.662-12.603,30.102-28.671C239.307,30.158,225.929,16.5,209.361,16.5z     "/>
		</g>
	</g>
	<g>
		<g>
			<path class="st0" d="M231.582,24.384C225.694,18.333,217.803,15,209.361,15H99.556c-0.829,0-1.5,0.672-1.5,1.5s0.671,1.5,1.5,1.5     h109.806c7.624,0,14.752,3.01,20.071,8.476c5.316,5.464,8.128,12.677,7.919,20.312C236.94,61.792,224.108,74,208.748,74H86.986     c-1.698,0-3.254,0.779-4.271,2.139c-1.017,1.358-1.326,3.072-0.847,4.7l6.426,21.849c0.162,0.55-0.19,0.856-0.349,0.963     c-0.158,0.107-0.576,0.315-1.023-0.045l-35.37-28.429C50.61,74.418,49.423,74,48.21,74h-2.849c-7.625,0-14.752-3.01-20.071-8.476     c-5.315-5.464-8.128-12.677-7.918-20.312C17.784,30.208,30.615,18,45.975,18h38.526c0.829,0,1.5-0.672,1.5-1.5     s-0.671-1.5-1.5-1.5H45.975c-16.97,0-31.146,13.517-31.602,30.131c-0.231,8.451,2.882,16.437,8.768,22.485     C29.028,73.667,36.92,77,45.361,77h2.849c0.53,0,1.049,0.183,1.462,0.515l35.37,28.429c0.718,0.577,1.564,0.868,2.415,0.868     c0.743,0,1.489-0.222,2.157-0.669c1.433-0.959,2.044-2.648,1.558-4.302l-6.426-21.848c-0.209-0.713-0.074-1.463,0.371-2.058     C85.562,77.341,86.243,77,86.986,77h121.762c16.97,0,31.146-13.517,31.602-30.131C240.581,38.418,237.468,30.433,231.582,24.384z     "/>
		</g>
	</g>
	<g>
		<g>
			<path class="st1" d="M149.142,43.43c1.62-1.58,0.726-4.331-1.513-4.656l-10.893-1.583c-0.889-0.129-1.657-0.688-2.055-1.493     l-4.872-9.871c-1.001-2.029-3.894-2.029-4.895,0l-4.872,9.871c-0.398,0.805-1.166,1.364-2.055,1.493l-10.893,1.583     c-2.239,0.325-3.133,3.076-1.513,4.656l7.883,7.683c0.643,0.627,0.937,1.531,0.785,2.416l-1.861,10.85     c-0.382,2.229,1.958,3.93,3.96,2.877l9.743-5.123c0.795-0.418,1.745-0.418,2.54,0l9.743,5.123     c2.002,1.053,4.343-0.648,3.96-2.877l-1.861-10.85c-0.152-0.885,0.142-1.789,0.785-2.416L149.142,43.43z"/>
		</g>
	</g>
	<g>
		<g>
			<path class="st0" d="M150.189,44.504c1.162-1.132,1.572-2.794,1.07-4.336c-0.501-1.543-1.81-2.646-3.414-2.879l-10.894-1.583     c-0.4-0.059-0.746-0.31-0.925-0.673l-4.872-9.871c-0.718-1.454-2.171-2.357-3.793-2.357c-1.622,0-3.075,0.903-3.792,2.357     l-4.872,9.871c-0.179,0.363-0.525,0.614-0.926,0.673l-10.893,1.583c-1.604,0.233-2.913,1.336-3.414,2.879     c-0.502,1.542-0.092,3.204,1.07,4.336l7.883,7.684c0.29,0.282,0.422,0.689,0.354,1.088l-1.861,10.85     c-0.274,1.599,0.371,3.184,1.683,4.137c1.312,0.955,3.02,1.077,4.454,0.322l9.743-5.123c0.357-0.19,0.786-0.189,1.144,0     l9.743,5.123c0.624,0.328,1.3,0.49,1.972,0.49c0.874,0,1.741-0.274,2.482-0.813c1.312-0.953,1.957-2.538,1.683-4.138     l-1.861-10.849c-0.068-0.398,0.063-0.806,0.353-1.088L150.189,44.504z M138.996,53.783l1.861,10.848     c0.117,0.681-0.303,1.068-0.489,1.204c-0.186,0.134-0.684,0.416-1.294,0.093l-9.744-5.123c-0.616-0.323-1.292-0.485-1.968-0.485     c-0.676,0-1.352,0.162-1.968,0.485l-9.743,5.123c-0.609,0.323-1.108,0.041-1.294-0.093c-0.186-0.136-0.606-0.523-0.489-1.203     l1.861-10.849c0.235-1.373-0.22-2.772-1.217-3.744l-7.882-7.684c-0.494-0.481-0.382-1.042-0.311-1.261     c0.071-0.219,0.31-0.737,0.993-0.837l10.893-1.583c1.378-0.199,2.569-1.064,3.185-2.313l4.872-9.871     c0.305-0.618,0.873-0.686,1.102-0.686c0.23,0,0.797,0.067,1.103,0.686l4.872,9.871c0.616,1.249,1.807,2.114,3.185,2.313     l10.894,1.583c0.683,0.1,0.921,0.618,0.993,0.837c0.071,0.219,0.183,0.779-0.311,1.261l-7.883,7.684     C139.215,51.011,138.761,52.41,138.996,53.783z"/>
		</g>
	</g>
	<g>
		<g>
			<path class="st1" d="M84.142,43.43c1.62-1.58,0.726-4.331-1.513-4.656l-10.893-1.583c-0.889-0.129-1.658-0.688-2.055-1.493     l-4.872-9.871c-1.001-2.029-3.894-2.029-4.895,0l-4.872,9.871c-0.398,0.805-1.166,1.364-2.055,1.493l-10.893,1.583     c-2.239,0.325-3.133,3.076-1.513,4.656l7.883,7.683c0.643,0.627,0.937,1.531,0.785,2.416l-1.861,10.85     c-0.382,2.229,1.958,3.93,3.96,2.877l9.743-5.123c0.795-0.418,1.745-0.418,2.54,0l9.743,5.123     c2.002,1.053,4.343-0.648,3.96-2.877l-1.861-10.85c-0.152-0.885,0.142-1.789,0.785-2.416L84.142,43.43z"/>
		</g>
	</g>
	<g>
		<g>
			<path class="st0" d="M85.189,44.504c1.162-1.132,1.572-2.794,1.07-4.336c-0.501-1.543-1.81-2.646-3.414-2.879l-10.894-1.583     c-0.4-0.059-0.746-0.31-0.925-0.673l-4.872-9.871c-0.718-1.454-2.171-2.357-3.792-2.357c0,0,0,0,0,0     c-1.622,0-3.075,0.903-3.793,2.357l-4.872,9.871c-0.179,0.363-0.525,0.614-0.926,0.673l-10.893,1.583     c-1.604,0.233-2.913,1.336-3.414,2.879c-0.502,1.542-0.092,3.204,1.07,4.336l7.883,7.684c0.29,0.282,0.422,0.689,0.354,1.088     l-1.861,10.85c-0.274,1.599,0.371,3.184,1.683,4.137c0.741,0.539,1.608,0.813,2.481,0.813c0.672,0,1.348-0.162,1.972-0.49     l9.744-5.123c0.357-0.19,0.786-0.189,1.144,0l9.743,5.123c1.437,0.755,3.142,0.63,4.454-0.322     c1.312-0.953,1.957-2.538,1.683-4.138l-1.861-10.849c-0.068-0.398,0.063-0.806,0.353-1.088L85.189,44.504z M73.996,53.783     l1.861,10.848c0.117,0.681-0.303,1.068-0.489,1.204c-0.186,0.134-0.686,0.416-1.294,0.093l-9.744-5.123     c-0.616-0.323-1.292-0.485-1.968-0.485c-0.676,0-1.352,0.162-1.968,0.485l-9.744,5.124c-0.61,0.321-1.108,0.041-1.294-0.094     c-0.186-0.136-0.606-0.523-0.489-1.203l1.861-10.849c0.235-1.373-0.22-2.772-1.217-3.744l-7.882-7.684     c-0.494-0.481-0.382-1.042-0.311-1.261c0.071-0.219,0.31-0.737,0.993-0.837l10.892-1.583c1.378-0.199,2.569-1.064,3.185-2.313     l4.872-9.871c0.305-0.618,0.872-0.686,1.103-0.686h0c0.229,0,0.797,0.067,1.102,0.686l4.871,9.871     c0.616,1.249,1.807,2.114,3.185,2.313l10.894,1.583c0.683,0.1,0.921,0.618,0.993,0.837c0.071,0.219,0.183,0.779-0.311,1.261     l-7.883,7.684C74.215,51.011,73.761,52.41,73.996,53.783z"/>
		</g>
	</g>
	<g>
		<g>
			<path class="st1" d="M214.142,43.43c1.62-1.58,0.726-4.331-1.513-4.656l-10.893-1.583c-0.889-0.129-1.657-0.688-2.055-1.493     l-4.872-9.871c-1.001-2.029-3.894-2.029-4.895,0l-4.872,9.871c-0.398,0.805-1.166,1.364-2.055,1.493l-10.893,1.583     c-2.239,0.325-3.133,3.076-1.513,4.656l7.883,7.683c0.643,0.627,0.937,1.531,0.785,2.416l-1.861,10.85     c-0.382,2.229,1.958,3.93,3.96,2.877l9.743-5.123c0.795-0.418,1.745-0.418,2.54,0l9.743,5.123     c2.002,1.053,4.343-0.648,3.96-2.877l-1.861-10.85c-0.152-0.885,0.142-1.789,0.785-2.416L214.142,43.43z"/>
		</g>
	</g>
	<g>
		<g>
			<path class="st0" d="M215.189,44.504c1.162-1.132,1.572-2.794,1.07-4.336c-0.501-1.543-1.81-2.646-3.414-2.879l-10.894-1.583     c-0.4-0.059-0.746-0.31-0.925-0.673l-4.872-9.871c-0.718-1.454-2.171-2.357-3.792-2.357c0,0,0,0,0,0     c-1.622,0-3.075,0.903-3.793,2.357l-4.872,9.871c-0.179,0.363-0.525,0.614-0.926,0.673l-10.893,1.583     c-1.605,0.233-2.913,1.336-3.414,2.879c-0.502,1.542-0.092,3.204,1.07,4.336l7.883,7.684c0.29,0.282,0.422,0.689,0.354,1.088     l-1.861,10.85c-0.274,1.599,0.371,3.184,1.683,4.137c0.741,0.539,1.608,0.813,2.481,0.813c0.672,0,1.348-0.162,1.972-0.49     l9.744-5.123c0.357-0.19,0.786-0.189,1.144,0l9.743,5.123c1.436,0.755,3.143,0.63,4.454-0.322     c1.312-0.953,1.957-2.538,1.683-4.138l-1.861-10.849c-0.068-0.398,0.063-0.806,0.353-1.088L215.189,44.504z M203.996,53.783     l1.861,10.848c0.117,0.681-0.303,1.068-0.489,1.204c-0.186,0.134-0.685,0.416-1.294,0.093l-9.744-5.123     c-0.616-0.323-1.292-0.485-1.968-0.485c-0.676,0-1.352,0.162-1.968,0.485l-9.744,5.124c-0.61,0.321-1.108,0.041-1.294-0.094     c-0.186-0.136-0.606-0.523-0.489-1.203l1.861-10.849c0.235-1.373-0.22-2.772-1.217-3.744l-7.882-7.684     c-0.494-0.481-0.382-1.042-0.311-1.261c0.071-0.219,0.31-0.737,0.993-0.837l10.893-1.583c1.378-0.199,2.569-1.064,3.185-2.313     l4.872-9.871c0.305-0.618,0.872-0.686,1.103-0.686h0c0.229,0,0.797,0.067,1.102,0.686l4.871,9.871     c0.616,1.249,1.807,2.114,3.185,2.313l10.894,1.583c0.683,0.1,0.921,0.618,0.993,0.837c0.071,0.219,0.183,0.779-0.311,1.261     l-7.883,7.684C204.215,51.011,203.761,52.41,203.996,53.783z"/>
		</g>
	</g>
	<g>
		<g>
			<path class="st4" d="M233.861,229.5h-213c-2.761,0-5,2.239-5,5s2.239,5,5,5h213c2.761,0,5-2.239,5-5S236.623,229.5,233.861,229.5     z"/>
		</g>
	</g>
	<g>
		<g>
			<path class="st0" d="M233.861,228h-213c-3.584,0-6.5,2.916-6.5,6.5s2.916,6.5,6.5,6.5h213c3.584,0,6.5-2.916,6.5-6.5     S237.445,228,233.861,228z M233.861,238h-213c-1.93,0-3.5-1.57-3.5-3.5s1.57-3.5,3.5-3.5h213c1.93,0,3.5,1.57,3.5,3.5     S235.791,238,233.861,238z"/>
		</g>
	</g>
	<g>
		<g>
			<path class="st2" d="M228.574,87h-24.606c-4.996,0-9.046,4.05-9.046,9.045v111.314c0,4.996,4.05,9.045,9.046,9.045h24.606     c4.996,0,9.046-4.05,9.046-9.045V96.045C237.619,91.05,233.569,87,228.574,87z"/>
		</g>
	</g>
	<g>
		<g>
			<path class="st0" d="M228.574,85.5h-24.606c-5.815,0-10.546,4.73-10.546,10.545v33.373c0,0.828,0.671,1.5,1.5,1.5     s1.5-0.672,1.5-1.5V96.045c0-4.16,3.385-7.545,7.546-7.545h24.606c4.161,0,7.545,3.385,7.545,7.545v111.314     c0,4.161-3.385,7.546-7.545,7.546h-24.606c-4.161,0-7.546-3.385-7.546-7.546v-62.277c0-0.828-0.671-1.5-1.5-1.5     s-1.5,0.672-1.5,1.5v62.277c0,5.815,4.731,10.546,10.546,10.546h24.606c5.815,0,10.545-4.73,10.545-10.546V96.045     C239.119,90.23,234.389,85.5,228.574,85.5z"/>
		</g>
	</g>
	<g>
		<g>
			<path class="st1" d="M169.302,110.5h-24.607c-4.996,0-9.046,4.05-9.046,9.045v87.813c0,4.996,4.05,9.045,9.046,9.045h24.607     c4.996,0,9.046-4.05,9.046-9.045v-87.813C178.348,114.55,174.298,110.5,169.302,110.5z"/>
		</g>
	</g>
	<g>
		<g>
			<path class="st0" d="M169.302,109h-24.606c-5.815,0-10.546,4.73-10.546,10.546v87.813c0,5.814,4.731,10.545,10.546,10.545h24.606     c5.815,0,10.546-4.73,10.546-10.545v-87.813C179.848,113.73,175.117,109,169.302,109z M176.848,207.359     c0,4.16-3.385,7.545-7.546,7.545h-24.606c-4.161,0-7.546-3.385-7.546-7.545v-87.813c0-4.161,3.385-7.546,7.546-7.546h24.606     c4.161,0,7.546,3.385,7.546,7.546V207.359z"/>
		</g>
	</g>
	<g>
		<g>
			<path class="st5" d="M110.029,134H85.423c-4.996,0-9.046,4.05-9.046,9.045v64.313c0,4.996,4.05,9.046,9.046,9.046h24.606     c4.996,0,9.046-4.05,9.046-9.046v-64.313C119.075,138.05,115.025,134,110.029,134z"/>
		</g>
	</g>
	<g>
		<g>
			<path class="st0" d="M110.029,132.5H85.423c-5.815,0-10.545,4.73-10.545,10.546v64.313c0,5.814,4.73,10.545,10.545,10.545h24.606     c5.815,0,10.546-4.73,10.546-10.545v-64.313C120.575,137.23,115.844,132.5,110.029,132.5z M117.575,207.359     c0,4.16-3.385,7.545-7.546,7.545H85.423c-4.161,0-7.545-3.385-7.545-7.545v-64.313c0-4.161,3.385-7.546,7.545-7.546h24.606     c4.161,0,7.546,3.385,7.546,7.546V207.359z"/>
		</g>
	</g>
	<g>
		<g>
			<path class="st3" d="M50.756,157.5H26.149c-4.996,0-9.046,4.05-9.046,9.045v40.813c0,4.996,4.05,9.045,9.046,9.045h24.607     c4.996,0,9.046-4.05,9.046-9.045v-40.813C59.802,161.55,55.752,157.5,50.756,157.5z"/>
		</g>
	</g>
	<g>
		<g>
			<path class="st0" d="M50.756,156H26.149c-5.815,0-10.545,4.73-10.545,10.546v40.813c0,5.815,4.731,10.546,10.545,10.546h24.607     c5.815,0,10.545-4.73,10.545-10.546v-40.813C61.301,160.73,56.571,156,50.756,156z M58.301,207.358     c0,4.161-3.385,7.546-7.545,7.546H26.149c-4.161,0-7.545-3.385-7.545-7.546v-40.813c0-4.161,3.385-7.546,7.545-7.546h24.607     c4.161,0,7.545,3.385,7.545,7.546V207.358z"/>
		</g>
	</g>
	<g>
		<g>
			<path class="st13" d="M229.431,26.48c-5.32-5.47-12.45-8.48-20.07-8.48h-15c7.62,0,14.75,3.01,20.07,8.48     c5.32,5.46,8.13,12.67,7.92,20.31c-0.41,15-13.24,27.21-28.6,27.21h15c15.36,0,28.19-12.21,28.6-27.21     C237.561,39.15,234.751,31.94,229.431,26.48z"/>
		</g>
	</g>
	<g>
		<g>
			<path class="st6" d="M228.571,88.5h-15c4.16,0,7.55,3.38,7.55,7.55v111.31c0,4.16-3.39,7.55-7.55,7.55h15     c4.16,0,7.55-3.39,7.55-7.55V96.05C236.121,91.88,232.731,88.5,228.571,88.5z"/>
		</g>
	</g>
</g>
</svg>
