<svg height="439pt" viewBox="0 0 439 439.33895" width="439pt" xmlns="http://www.w3.org/2000/svg"><path d="m9.3125 402.285156v-164.574218c0-5.046876 4.09375-9.140626 9.140625-9.140626h54.859375c5.046875 0 9.140625 4.09375 9.140625 9.140626v164.574218c0 15.148438-12.28125 27.425782-27.425781 27.425782h-18.289063c-15.148437 0-27.425781-12.277344-27.425781-27.425782zm0 0" fill="#00a388"/><path d="m55.027344 438.855469h-18.285156c-20.167969 0-36.574219-16.402344-36.574219-36.570313v-164.570312c0-10.082032 8.203125-18.285156 18.289062-18.285156h54.855469c10.085938 0 18.285156 8.203124 18.285156 18.285156v164.570312c0 20.167969-16.40625 36.570313-36.570312 36.570313zm-36.570313-201.140625v164.570312c0 10.082032 8.199219 18.285156 18.285157 18.285156h18.285156c10.082031 0 18.285156-8.203124 18.285156-18.285156v-164.570312zm0 0" fill="#2a3d4f"/><path d="m56.152344 9.140625h-20.539063l-15.15625 48.386719 7.386719 18.015625v153.027343h36.570312v-153.027343l6.894532-18.015625zm0 0" fill="#e7e4e1"/><path d="m73.558594 237.714844h-54.859375v-160.367188l-7.953125-19.402344 18.148437-57.945312h33.972657l18.117187 57.832031-7.425781 19.398438zm-36.574219-18.285156h18.289063v-145.574219l6.363281-16.632813-12.199219-38.9375h-7.109375l-12.164063 38.820313 6.820313 16.636719zm0 0" fill="#2a3d4f"/><path d="m430.128906 315.257812v-62.695312l-35.785156.003906c-2.457031-8.675781-5.855469-16.941406-10.167969-24.652344l25.273438-25.277343-44.332031-44.332031-25.273438 25.277343c-7.710938-4.3125-15.976562-7.710937-24.652344-10.171875v-35.785156h-62.695312v35.785156c-8.675782 2.460938-16.941406 5.859375-24.652344 10.171875l-25.273438-25.273437-44.332031 44.328125 25.273438 25.277343c-4.3125 7.710938-7.710938 15.976563-10.167969 24.652344h-35.785156v62.695313l35.785156-.003907c2.460938 8.675782 5.859375 16.941407 10.171875 24.652344l-25.277344 25.277344 44.332031 44.332031 25.277344-25.277343c7.707032 4.3125 15.972656 7.710937 24.648438 10.167968v35.785156h62.695312v-35.785156c8.675782-2.457031 16.941406-5.855468 24.652344-10.167968l25.273438 25.277343 44.332031-44.332031-25.277344-25.277344c4.316406-7.710937 7.714844-15.976562 10.171875-24.652344zm0 0" fill="#ec763e"/><path d="m315.191406 439.339844h-62.695312c-5.050782 0-9.144532-4.089844-9.144532-9.144532v-29.070312c-4.730468-1.625-9.339843-3.527344-13.78125-5.679688l-20.535156 20.535157c-3.570312 3.574219-9.355468 3.574219-12.929687 0l-44.328125-44.328125c-3.570313-3.570313-3.570313-9.359375 0-12.929688l20.53125-20.535156c-2.152344-4.4375-4.050782-9.042969-5.679688-13.785156h-29.070312c-5.050782 0-9.144532-4.089844-9.144532-9.144532v-62.695312c0-5.054688 4.09375-9.144531 9.144532-9.144531h29.070312c1.628906-4.738281 3.527344-9.339844 5.679688-13.785157l-20.535156-20.527343c-1.714844-1.710938-2.679688-4.035157-2.679688-6.464844 0-2.417969.964844-4.746094 2.679688-6.460937l44.332031-44.339844c1.714843-1.714844 4.042969-2.679688 6.464843-2.679688 2.425782 0 4.75.964844 6.464844 2.679688l20.53125 20.535156c4.445313-2.152344 9.050782-4.054688 13.785156-5.679688v-29.070312c0-5.054688 4.09375-9.144531 9.144532-9.144531h62.695312c5.050782 0 9.144532 4.089843 9.144532 9.144531v29.070312c4.734374 1.625 9.335937 3.527344 13.785156 5.679688l20.535156-20.535156c3.570312-3.570313 9.355469-3.570313 12.929688 0l44.328124 44.328125c3.570313 3.574219 3.570313 9.359375 0 12.929687l-20.535156 20.535156c2.15625 4.445313 4.054688 9.054688 5.679688 13.785157h29.070312c5.050782 0 9.144532 4.089843 9.144532 9.144531v62.695312c0 5.054688-4.09375 9.144532-9.144532 9.144532h-29.070312c-1.628906 4.730468-3.527344 9.339844-5.679688 13.785156l20.535156 20.535156c3.570313 3.570313 3.570313 9.359375 0 12.929688l-44.328124 44.328125c-3.574219 3.574219-9.359376 3.574219-12.929688 0l-20.535156-20.535157c-4.449219 2.152344-9.050782 4.054688-13.785156 5.679688v29.070312c0 5.054688-4.09375 9.144532-9.144532 9.144532zm-53.554687-18.285156h44.410156v-26.644532c0-4.089844 2.71875-7.6875 6.652344-8.792968 8.011719-2.269532 15.640625-5.421876 22.679687-9.359376 3.589844-1.980468 8.039063-1.363281 10.929688 1.519532l18.8125 18.8125 31.402344-31.402344-18.8125-18.8125c-2.894532-2.894531-3.515626-7.359375-1.519532-10.929688 3.9375-7.035156 7.085938-14.667968 9.355469-22.675781 1.113281-3.9375 4.707031-6.652343 8.796875-6.652343h26.640625v-44.410157h-26.640625c-4.089844 0-7.683594-2.714843-8.796875-6.652343-2.265625-8-5.414063-15.636719-9.355469-22.679688-1.996094-3.570312-1.375-8.035156 1.519532-10.929688l18.8125-18.8125-31.402344-31.402343-18.8125 18.8125c-2.890625 2.886719-7.339844 3.511719-10.929688 1.519531-7.039062-3.9375-14.667968-7.089844-22.679687-9.355469-3.933594-1.109375-6.652344-4.707031-6.652344-8.796875v-26.644531h-44.410156v26.644531c0 4.089844-2.71875 7.6875-6.648438 8.796875-8.011719 2.265625-15.640625 5.417969-22.679687 9.355469-3.585938 1.992188-8.046875 1.367188-10.929688-1.519531l-18.808594-18.8125-31.40625 31.410156 18.8125 18.804687c2.894532 2.894532 3.515626 7.359376 1.519532 10.929688-3.933594 7.027344-7.082032 14.660156-9.359375 22.6875-1.113281 3.929688-4.703125 6.644531-8.792969 6.644531h-26.644531v44.410157h26.644531c4.089844 0 7.683594 2.714843 8.792969 6.652343 2.277343 8.023438 5.425781 15.648438 9.355469 22.675781 2 3.570313 1.378906 8.035157-1.515626 10.929688l-18.808593 18.8125 31.402343 31.402344 18.8125-18.8125c2.890626-2.882813 7.339844-3.5 10.929688-1.519532 7.042969 3.945313 14.675781 7.089844 22.675781 9.359376 3.929688 1.105468 6.648438 4.703124 6.648438 8.792968zm0 0" fill="#2a3d4f"/><path d="m347.84375 283.910156c0 35.347656-28.652344 64-64 64s-64-28.652344-64-64c0-35.34375 28.652344-64 64-64s64 28.65625 64 64zm0 0" fill="#fccb4f"/><g fill="#2a3d4f"><path d="m283.84375 357.054688c-40.332031 0-73.144531-32.8125-73.144531-73.144532 0-40.328125 32.8125-73.144531 73.144531-73.144531 40.328125 0 73.140625 32.816406 73.140625 73.144531 0 40.332032-32.8125 73.144532-73.140625 73.144532zm0-128c-30.25 0-54.859375 24.605468-54.859375 54.855468s24.609375 54.855469 54.859375 54.855469 54.855469-24.605469 54.855469-54.855469-24.605469-54.855468-54.855469-54.855468zm0 0"/><path d="m36.742188 256h18.285156v146.285156h-18.285156zm0 0"/></g></svg>