<?xml version="1.0" encoding="iso-8859-1"?>
<!-- Generator: Adobe Illustrator 19.0.0, SVG Export Plug-In . SVG Version: 6.00 Build 0)  -->
<svg version="1.1" id="Capa_1" xmlns="http://www.w3.org/2000/svg" xmlns:xlink="http://www.w3.org/1999/xlink" x="0px" y="0px"
	 viewBox="0 0 512 512" style="enable-background:new 0 0 512 512;" xml:space="preserve">
<polygon style="fill:#788B9E;" points="480.107,455.079 480.107,425.079 256,425.079 245.992,440.079 256,455.079 "/>
<rect x="31.893" y="425.082" style="fill:#BDC4CB;" width="224.11" height="30"/>
<rect x="16.893" y="50.342" style="fill:#DCE4EC;" width="30" height="437.57"/>
<rect x="465.11" y="50.342" style="fill:#BDC4CB;" width="30" height="437.57"/>
<path style="fill:#DCE4EC;" d="M161.383,24.087l-20.016,138.11l20.016,91.621c35,0,50.521-24.184,50.521-38.834V24.087H161.383z"/>
<path style="fill:#F7F7F8;" d="M110.863,24.087v187.994c0,17.553,14.187,41.737,50.521,41.737V24.087H110.863z"/>
<path style="fill:#00B9ED;" d="M186.541,221.839c-12.346,0-18.954-3.256-25.158-6.741l-20.016,80.54l20.016,80.655
	c27.902,0,50.521-22.619,50.521-50.521V214.984C205.64,218.512,199.023,221.839,186.541,221.839z"/>
<path style="fill:#8AEEFF;" d="M133.408,206.767c-10.638,0-17.016,2.417-22.545,5.315v113.691c0,27.902,22.619,50.521,50.521,50.521
	V215.098C154.238,211.085,147.629,206.767,133.408,206.767z"/>
<path style="fill:#DCE4EC;" d="M350.617,24.087l-20.016,138.11l20.016,91.621c35,0,50.521-24.184,50.521-38.834V24.087H350.617z"/>
<path style="fill:#F7F7F8;" d="M300.096,24.087v187.994c0,17.553,14.187,41.737,50.521,41.737V24.087H300.096z"/>
<path style="fill:#00B9ED;" d="M375.774,221.839c-12.346,0-18.954-3.256-25.158-6.741l-20.016,80.54l20.016,80.655
	c27.902,0,50.521-22.619,50.521-50.521V214.984C394.874,218.512,388.256,221.839,375.774,221.839z"/>
<path style="fill:#8AEEFF;" d="M322.641,206.767c-10.638,0-17.016,2.417-22.545,5.315v113.691c0,27.902,22.619,50.521,50.521,50.521
	V215.098C343.471,211.085,336.862,206.767,322.641,206.767z"/>
<polygon style="fill:#788B9E;" points="512,98.186 256,98.186 235.984,130.079 256,161.971 512,161.971 "/>
<rect y="98.182" style="fill:#BDC4CB;" width="256" height="63.785"/>
<g>
</g>
<g>
</g>
<g>
</g>
<g>
</g>
<g>
</g>
<g>
</g>
<g>
</g>
<g>
</g>
<g>
</g>
<g>
</g>
<g>
</g>
<g>
</g>
<g>
</g>
<g>
</g>
<g>
</g>
</svg>
