<?xml version="1.0" encoding="UTF-8" standalone="no"?>
<!-- Generator: Adobe Illustrator 16.0.0, SVG Export Plug-In . SVG Version: 6.00 Build 0)  -->

<svg
   xmlns:dc="http://purl.org/dc/elements/1.1/"
   xmlns:cc="http://creativecommons.org/ns#"
   xmlns:rdf="http://www.w3.org/1999/02/22-rdf-syntax-ns#"
   xmlns:svg="http://www.w3.org/2000/svg"
   xmlns="http://www.w3.org/2000/svg"
   xmlns:sodipodi="http://sodipodi.sourceforge.net/DTD/sodipodi-0.dtd"
   xmlns:inkscape="http://www.inkscape.org/namespaces/inkscape"
   version="1.1"
   id="Layer_1"
   x="0px"
   y="0px"
   width="169.063px"
   height="169.063px"
   viewBox="0 0 169.063 169.063"
   style="enable-background:new 0 0 169.063 169.063;"
   xml:space="preserve"
   sodipodi:docname="rajus2.svg"
   inkscape:version="0.92.4 5da689c313, 2019-01-14"><metadata
   id="metadata2065"><rdf:RDF><cc:Work
       rdf:about=""><dc:format>image/svg+xml</dc:format><dc:type
         rdf:resource="http://purl.org/dc/dcmitype/StillImage" /><dc:title></dc:title></cc:Work></rdf:RDF></metadata><defs
   id="defs2063" /><sodipodi:namedview
   pagecolor="#ffffff"
   bordercolor="#666666"
   borderopacity="1"
   objecttolerance="10"
   gridtolerance="10"
   guidetolerance="10"
   inkscape:pageopacity="0"
   inkscape:pageshadow="2"
   inkscape:window-width="1440"
   inkscape:window-height="843"
   id="namedview2061"
   showgrid="false"
   inkscape:zoom="2.7918586"
   inkscape:cx="72.538602"
   inkscape:cy="56.384363"
   inkscape:window-x="0"
   inkscape:window-y="0"
   inkscape:window-maximized="1"
   inkscape:current-layer="layer1"
   inkscape:snap-grids="false"
   inkscape:snap-center="false"
   inkscape:snap-object-midpoints="false"
   inkscape:snap-others="true" />

<g
   id="g2030">
</g>
<g
   id="g2032">
</g>
<g
   id="g2034">
</g>
<g
   id="g2036">
</g>
<g
   id="g2038">
</g>
<g
   id="g2040">
</g>
<g
   id="g2042">
</g>
<g
   id="g2044">
</g>
<g
   id="g2046">
</g>
<g
   id="g2048">
</g>
<g
   id="g2050">
</g>
<g
   id="g2052">
</g>
<g
   id="g2054">
</g>
<g
   id="g2056">
</g>
<g
   id="g2058">
</g>
<g
   inkscape:groupmode="layer"
   id="layer1"
   inkscape:label="Layer 1"><circle
     style="fill:#ffffff;fill-opacity:1;stroke:#0459a9;stroke-opacity:1"
     id="path2778"
     cx="83.994232"
     cy="82.919678"
     r="76.472351" /></g><g
   inkscape:groupmode="layer"
   id="layer2"
   inkscape:label="Layer 2"><path
     style="enable-background:new 0 0 169.06299999999998818 169.06299999999998818;fill:#0459a9;fill-opacity:1;stroke:#000000;stroke-width:0.77227437px;stroke-linecap:butt;stroke-linejoin:miter;stroke-opacity:0"
     d="m 105.45044,16.900757 -42.048202,0.276405 -0.03074,44.221569 -44.333237,-0.7048 -0.07097,41.681659 44.589068,0.27652 0.07877,44.55016 42.399381,0.11195 -0.80629,-44.44038 44.91731,0.29195 0.1653,-42.311409 -44.58375,0.02841 -0.27662,-43.982036"
     id="path2621"
     inkscape:connector-curvature="0"
     sodipodi:nodetypes="ccccccccccccc" /><path
     style="enable-background:new 0 0 169.06299999999998818 169.06299999999998818;fill:#ffffff;fill-opacity:1;stroke:#0459a9;stroke-width:0.77227437px;stroke-linecap:butt;stroke-linejoin:miter;stroke-opacity:1"
     d="M 51.943648,85.972432 C 31.578217,66.017114 43.603008,44.57481 62.540952,46.077539 c 15.154502,1.202513 23.17835,11.093867 37.124075,27.557833 0,0 -5.84137,4.37808 -12.645532,3.5689 C 81.536152,76.552165 78.722694,74.070195 70.331493,65.883213 L 51.943648,85.972432"
     id="path2623"
     inkscape:connector-curvature="0"
     sodipodi:nodetypes="cscscc" /><path
     style="enable-background:new 0 0 169.06299999999998818 169.06299999999998818;fill:#ffffff;fill-opacity:1;stroke:#0459a9;stroke-width:0.77227437px;stroke-linecap:butt;stroke-linejoin:miter;stroke-opacity:1"
     d="m 104.19929,73.76362 c -1.90671,1.640538 -17.22763,16.215452 -33.730533,-2.94641 0,0 -18.33384,18.937182 -19.833589,22.755312 -1.167053,2.97115 3.663694,4.91255 3.663694,4.91255 1.804998,1.866818 15.162131,-13.9257 15.162131,-13.9257 1.765821,-1.6498 2.867687,0.88496 2.810361,1.51408 0,0 -6.338597,6.52888 -8.433646,8.73954 -2.262254,2.38709 -4.121813,4.24831 -4.739015,5.699338 -2.085828,4.90378 3.902356,5.12292 3.902356,5.12292 11.343645,-9.405768 13.817719,-13.792898 15.894102,-14.806648 1.033828,-0.50474 1.220935,0.2574 1.148712,0.74888 -0.155907,1.06109 -3.096234,3.69058 -3.096234,3.69058 0,0 -8.65918,8.592868 -9.798238,11.030638 -0.934769,2.00055 -0.1931,3.41197 0.272775,4.10987 1.404095,2.10346 6.627597,-0.69321 6.627597,-0.69321 -2.517893,-11.540288 5.736817,-9.61968 5.736817,-9.61968 0.903692,-9.940438 8.526351,-5.810058 8.498541,-7.544698 -0.153535,-9.57574 7.615926,-5.05159 7.665946,-6.58967 0.38056,-11.703451 13.049933,-5.01981 15.766843,-0.39146 1.36522,2.32568 1.08992,1.39138 1.53695,0.94103 18.59865,-18.736421 8.85375,-34.296633 2.42356,-38.271666 -9.83435,-6.079435 -25.467069,-0.777625 -30.238079,5.17793 L 104.19929,73.76362"
     id="path2625"
     inkscape:connector-curvature="0"
     sodipodi:nodetypes="csscssssssscssssssssscc" /><path
     style="enable-background:new 0 0 169.06299999999998818 169.06299999999998818;fill:#ffffff;fill-opacity:1;stroke:#0459a9;stroke-width:0.77227437px;stroke-linecap:butt;stroke-linejoin:miter;stroke-opacity:1"
     d="M 109.48042,97.235322 98.007197,85.575012 c 0.40373,-6.25461 5.709913,-4.28962 5.709913,-4.28962 l 11.85883,11.81095 c 0,0 0.0439,7.127648 -6.09552,4.13898"
     id="path2629"
     inkscape:connector-curvature="0"
     sodipodi:nodetypes="ccccc" /><path
     sodipodi:nodetypes="ccccc"
     inkscape:connector-curvature="0"
     id="path2631"
     d="m 86.79111,118.55543 -11.473219,-11.6603 c 0.403722,-6.2546 5.709903,-4.28962 5.709903,-4.28962 l 11.858839,11.81094 c 0,0 0.04386,7.12767 -6.095523,4.13898"
     style="enable-background:new 0 0 169.06299999999998818 169.06299999999998818;fill:#ffffff;fill-opacity:1;stroke:#0459a9;stroke-width:0.77227437px;stroke-linecap:butt;stroke-linejoin:miter;stroke-opacity:1" /><path
     style="enable-background:new 0 0 169.06299999999998818 169.06299999999998818;fill:#ffffff;fill-opacity:1;stroke:#0459a9;stroke-width:0.77227437px;stroke-linecap:butt;stroke-linejoin:miter;stroke-opacity:1"
     d="M 94.615006,111.31833 83.141787,99.658032 c 0.403722,-6.25461 5.709906,-4.28962 5.709906,-4.28962 l 11.858837,11.810938 c 0,0 0.0439,7.12766 -6.095524,4.13898"
     id="path2633"
     inkscape:connector-curvature="0"
     sodipodi:nodetypes="ccccc" /><path
     sodipodi:nodetypes="ccccc"
     inkscape:connector-curvature="0"
     id="path2635"
     d="M 102.24331,104.27682 90.770092,92.616522 c 0.403722,-6.25461 5.709905,-4.28962 5.709905,-4.28962 l 11.858843,11.810948 c 0,0 0.0439,7.12765 -6.09553,4.13897"
     style="enable-background:new 0 0 169.06299999999998818 169.06299999999998818;fill:#ffffff;fill-opacity:1;stroke:#0459a9;stroke-width:0.77227437px;stroke-linecap:butt;stroke-linejoin:miter;stroke-opacity:1" /><path
     style="enable-background:new 0 0 169.06299999999998818 169.06299999999998818;fill:#ffffff;fill-opacity:1;stroke:#0459a9;stroke-width:0.77227437px;stroke-linecap:butt;stroke-linejoin:miter;stroke-opacity:1"
     d="m 82.29237,117.38185 c -0.736216,0.73621 -5.907273,-6.74726 -6.562756,-6.09311 -4.402528,4.39354 1.900521,10.08252 6.562756,6.09311"
     id="path2637"
     inkscape:connector-curvature="0"
     sodipodi:nodetypes="csc" /></g></svg>