<?xml version="1.0" encoding="iso-8859-1"?>
<!-- Generator: Adobe Illustrator 19.0.0, SVG Export Plug-In . SVG Version: 6.00 Build 0)  -->
<svg version="1.1" id="Capa_1" xmlns="http://www.w3.org/2000/svg" xmlns:xlink="http://www.w3.org/1999/xlink" x="0px" y="0px"
	 viewBox="0 0 512 512" style="enable-background:new 0 0 512 512;" xml:space="preserve">
<path style="fill:#252D5C;" d="M498.691,127.06c-0.114-22.844-19.084-41.429-42.286-41.429H362.58v0.003h-0.016
	c-22.285,0-40.505,18.01-40.617,40.232v13.553l-27.798-26.35c-6.833-6.478-17.627-6.189-24.104,0.645
	c-6.479,6.834-6.19,17.626,0.645,24.104l56.578,53.63c10.845,10.281,28.78,2.563,28.78-12.375l-0.001-53.122
	c0.018-3.37,3.001-6.218,6.517-6.218h0.016v120.234h93.195V120.822h0.629c3.687,0,7.06,3.04,7.097,6.386v112.761h35.189V127.149
	C498.691,127.119,498.691,127.09,498.691,127.06z"/>
<path style="fill:#FFFFFF;" d="M299.004,117.673l-4.855-4.601c-6.833-6.478-17.627-6.189-24.104,0.645
	c-6.479,6.834-6.19,17.626,0.645,24.104l4.958,4.7L299.004,117.673z"/>
<path style="fill:#FFB69E;" d="M294.15,113.071c-6.833-6.478-17.627-6.189-24.104,0.645c-6.479,6.834-6.19,17.626,0.645,24.104
	L294.15,113.071z"/>
<path style="fill:#1B224A;" d="M455.775,239.968V120.822h0.629c3.687,0,7.06,3.04,7.097,6.386v112.761h35.189v-112.82
	c0-0.029,0-0.059,0-0.088c-0.114-22.844-19.084-41.429-42.286-41.429h-47.232v154.337H455.775z"/>
<polygon style="fill:#FFFFFF;" points="382.326,85.633 409.172,156.085 436.025,85.633 "/>
<path style="fill:#FF3C3C;" d="M420.85,109.616l-5.964-10.848l5.14-9.348c0.935-1.7-0.297-3.788-2.24-3.788h-17.231
	c-1.941,0-3.176,2.085-2.24,3.788l5.157,9.38l-5.948,10.818c-0.823,1.498-1.091,3.238-0.756,4.914l3.669,18.623l8.735,22.931
	l8.744-22.935l3.69-18.618C421.942,112.855,421.674,111.114,420.85,109.616z"/>
<rect x="422.17" y="139.765" style="fill:#252D5C;" width="23.242" height="7.168"/>
<circle style="fill:#FFB69E;" cx="409.166" cy="37.941" r="36.466"/>
<path style="fill:#C8E6EB;" d="M286.451,119.727l-31.39-6.41c-2.641-0.539-4.344-3.117-3.805-5.757l9.152-44.817
	c0.539-2.641,3.117-4.344,5.758-3.805l31.39,6.41c2.641,0.539,4.344,3.117,3.805,5.758l-9.152,44.817
	C291.669,118.563,289.091,120.266,286.451,119.727z"/>
<path style="fill:#965028;" d="M494.871,250.761H17.13c-9.461,0-17.13-7.669-17.13-17.129c0-9.46,7.669-17.129,17.13-17.129h477.74
	c9.46,0,17.129,7.669,17.129,17.129C512,243.092,504.331,250.761,494.871,250.761z"/>
<path style="fill:#5F6E9B;" d="M74.802,295.721v192.164c0,12.504,10.136,22.64,22.641,22.64c12.504,0,22.641-10.137,22.641-22.64
	V295.721H74.802z"/>
<path style="fill:#414B82;" d="M129.457,295.721v192.164c0,12.504,10.136,22.64,22.641,22.64c12.504,0,22.641-10.137,22.641-22.64
	V295.721H129.457z"/>
<g>
	<circle style="fill:#FFB69E;" cx="124.567" cy="74.526" r="39.101"/>
	<path style="fill:#FFB69E;" d="M220.703,170.522c-0.116-23.23-18.929-44.427-47.051-44.427c-17.542,0-99.343,0-99.343,0l0,0
		c-26.082,0-45.715,20.797-45.834,44.427v25.823l0,0v112.79c-0.052,10.42,8.352,18.909,18.773,18.963h0.097
		c10.376,0,18.813-8.384,18.865-18.773c0-14.829,0-121.41,0-138.613c0.019-3.794,3.817-6.881,7.611-6.881h0.982v143.079h99.938
		l-0.002-143.082c0,0,2.247-0.301,4.688,1.18c2.333,1.415,3.53,3.668,3.54,5.703c0,17.164,0,123.491,0,138.614
		c0.052,10.387,8.489,18.772,18.865,18.772h0.097c10.42-0.052,18.825-8.542,18.773-18.963L220.703,170.522z"/>
</g>
<path style="fill:#64AFFF;" d="M173.652,126.094h-28.561c0,0.004,0.001,0.007,0.001,0.011c0.505,11.276-9.957,20.879-20.879,20.879
	c-11.705,0-20.372-9.567-20.879-20.879c0-0.004,0-0.007,0-0.011c-16.395,0-29.025,0-29.025,0c-26.082,0-45.715,20.797-45.834,44.427
	v25.823l0,0v11.199H66.21v-36.833c0.019-3.794,3.817-6.881,7.611-6.881h0.982v143.079h99.938l-0.002-143.082
	c0,0,2.247-0.301,4.688,1.18c2.333,1.415,3.53,3.668,3.54,5.703v36.833h37.736v-37.023
	C220.586,147.29,201.774,126.094,173.652,126.094z"/>
<g>
</g>
<g>
</g>
<g>
</g>
<g>
</g>
<g>
</g>
<g>
</g>
<g>
</g>
<g>
</g>
<g>
</g>
<g>
</g>
<g>
</g>
<g>
</g>
<g>
</g>
<g>
</g>
<g>
</g>
</svg>
