<?xml version="1.0" encoding="iso-8859-1"?>
<!-- Generator: Adobe Illustrator 19.0.0, SVG Export Plug-In . SVG Version: 6.00 Build 0)  -->
<svg version="1.1" id="Capa_1" xmlns="http://www.w3.org/2000/svg" xmlns:xlink="http://www.w3.org/1999/xlink" x="0px" y="0px"
	 viewBox="0 0 512 512" style="enable-background:new 0 0 512 512;" xml:space="preserve">
<circle style="fill:#F94616;" cx="256" cy="256" r="256"/>
<path style="fill:#DB2C09;" d="M512,256c0-11.898-0.83-23.601-2.401-35.068l-83.265-83.265L91.667,387l121.396,121.396
	C227.025,510.754,241.366,512,256,512C397.385,512,512,397.385,512,256z"/>
<rect x="91.67" y="137.67" style="fill:#FFFFFF;" width="334.67" height="249.33"/>
<rect x="255.95" y="137.67" style="fill:#EBEEF0;" width="170.38" height="249.33"/>
<circle style="fill:#FEA626;" cx="256" cy="282.28" r="87.5"/>
<path style="fill:#F47C00;" d="M256,194.783c-0.016,0-0.032,0-0.048,0v174.999c0.016,0,0.032,0.001,0.048,0.001
	c48.325,0,87.5-39.175,87.5-87.5S304.325,194.783,256,194.783z"/>
<circle style="fill:#37474F;" cx="256" cy="236.52" r="19.999"/>
<path style="fill:#263238;" d="M256,216.521c-0.016,0-0.032,0.002-0.048,0.002v39.993c0.016,0,0.032,0.002,0.048,0.002
	c11.045,0,19.999-8.954,19.999-19.999C275.999,225.475,267.045,216.521,256,216.521z"/>
<rect x="240.13" y="264.45" style="fill:#37474F;" width="31.744" height="83.59"/>
<rect x="255.95" y="264.45" style="fill:#263238;" width="15.92" height="83.59"/>
<rect x="91.67" y="137.67" style="fill:#44C4FC;" width="334.67" height="30"/>
<rect x="255.95" y="137.67" style="fill:#29ACE5;" width="170.38" height="30"/>
<circle style="fill:#39B54A;" cx="108.87" cy="152.37" r="7.125"/>
<circle style="fill:#D6283B;" cx="130.25" cy="152.37" r="7.125"/>
<circle style="fill:#FFDE1F;" cx="151.62" cy="152.37" r="7.125"/>
<g>
</g>
<g>
</g>
<g>
</g>
<g>
</g>
<g>
</g>
<g>
</g>
<g>
</g>
<g>
</g>
<g>
</g>
<g>
</g>
<g>
</g>
<g>
</g>
<g>
</g>
<g>
</g>
<g>
</g>
</svg>
