<?xml version="1.0" encoding="iso-8859-1"?>
<!-- Generator: Adobe Illustrator 19.0.0, SVG Export Plug-In . SVG Version: 6.00 Build 0)  -->
<svg version="1.1" id="Capa_1" xmlns="http://www.w3.org/2000/svg" xmlns:xlink="http://www.w3.org/1999/xlink" x="0px" y="0px"
	 viewBox="0 0 512 512" style="enable-background:new 0 0 512 512;" xml:space="preserve">
<path style="fill:#E7E7F2;" d="M437.338,0H147.663c-30.688,0-55.654,24.966-55.654,55.653v216.252
	c0,30.688,24.966,55.653,55.654,55.653h187.514l99.885,62.494c1.22,0.763,2.6,1.142,3.978,1.142c1.566,0,3.128-0.489,4.446-1.46
	c2.477-1.822,3.59-4.973,2.808-7.947l-14.261-54.229h5.306c30.688,0,55.654-24.966,55.654-55.653V55.653
	C492.992,24.966,468.026,0,437.338,0z"/>
<path style="fill:#BCBCCE;" d="M437.338,0h-32.667c30.688,0,55.654,24.966,55.654,55.653v216.252
	c0,30.688-24.966,55.653-55.654,55.653h-5.306l12.642,48.07l23.055,14.425c1.22,0.763,2.6,1.142,3.978,1.142
	c1.566,0,3.128-0.489,4.446-1.46c2.477-1.822,3.59-4.973,2.808-7.947l-14.261-54.229h5.306c30.688,0,55.654-24.966,55.654-55.653
	V55.653C492.992,24.966,468.026,0,437.338,0z"/>
<path style="fill:#E36F91;" d="M365.859,128.476h-38.054V90.422c0-4.143-3.358-7.5-7.5-7.5h-55.608c-4.142,0-7.5,3.357-7.5,7.5
	v38.054h-38.054c-4.142,0-7.5,3.357-7.5,7.5v55.608c0,4.143,3.358,7.5,7.5,7.5h38.054v38.054c0,4.143,3.358,7.5,7.5,7.5h55.608
	c4.142,0,7.5-3.357,7.5-7.5v-38.054h38.054c4.142,0,7.5-3.357,7.5-7.5v-55.608C373.359,131.833,370.001,128.476,365.859,128.476z"/>
<path style="fill:#50D399;" d="M338.754,446.126l-86.257-104.484c-1.305-1.58-3.2-2.558-5.245-2.705
	c-2.041-0.147-4.06,0.549-5.578,1.926l-38.181,34.632c-17.93-16.88-34.676-38.426-48.693-62.704
	c-14.017-24.278-24.304-49.552-29.957-73.521l49.084-15.749c1.952-0.626,3.562-2.024,4.456-3.868
	c0.895-1.844,0.995-3.975,0.279-5.895L131.305,86.814c-1.401-3.753-5.506-5.743-9.318-4.52L67.481,99.785
	c-22.638,7.265-39.593,26.117-44.248,49.202c-6.82,33.816-5.365,72.91,4.207,113.057c8.173,34.352,21.844,68.273,40.634,100.818
	c18.79,32.545,41.331,61.346,66.993,85.6c29.98,28.361,63.109,49.168,95.807,60.171c6.728,2.264,13.681,3.368,20.595,3.368
	c16.023-0.001,31.837-5.93,44.139-17.087l42.4-38.457C340.976,453.765,341.304,449.216,338.754,446.126z"/>
<g>
	<path style="fill:#32A873;" d="M252.496,341.642c-1.305-1.58-3.2-2.558-5.245-2.705c-2.041-0.147-4.06,0.549-5.578,1.926
		l-21.498,19.499l92.175,119.366l25.658-23.272c2.968-2.691,3.296-7.24,0.746-10.33L252.496,341.642z"/>
	<path style="fill:#32A873;" d="M146.485,232.323l27.442-8.805c1.952-0.626,3.562-2.024,4.456-3.868
		c0.895-1.844,0.995-3.975,0.279-5.895L131.305,86.814c-1.401-3.753-5.506-5.743-9.318-4.52L89.792,92.625L146.485,232.323z"/>
</g>
<g>
</g>
<g>
</g>
<g>
</g>
<g>
</g>
<g>
</g>
<g>
</g>
<g>
</g>
<g>
</g>
<g>
</g>
<g>
</g>
<g>
</g>
<g>
</g>
<g>
</g>
<g>
</g>
<g>
</g>
</svg>
