<?xml version="1.0" encoding="UTF-8" standalone="no"?>
<!-- Generator: Adobe Illustrator 16.0.0, SVG Export Plug-In . SVG Version: 6.00 Build 0)  -->

<svg
   xmlns:dc="http://purl.org/dc/elements/1.1/"
   xmlns:cc="http://creativecommons.org/ns#"
   xmlns:rdf="http://www.w3.org/1999/02/22-rdf-syntax-ns#"
   xmlns:svg="http://www.w3.org/2000/svg"
   xmlns="http://www.w3.org/2000/svg"
   xmlns:sodipodi="http://sodipodi.sourceforge.net/DTD/sodipodi-0.dtd"
   xmlns:inkscape="http://www.inkscape.org/namespaces/inkscape"
   version="1.1"
   id="Layer_1"
   x="0px"
   y="0px"
   width="169.063px"
   height="169.063px"
   viewBox="0 0 169.063 169.063"
   style="enable-background:new 0 0 169.063 169.063;"
   xml:space="preserve"
   sodipodi:docname="rajus.svg"
   inkscape:version="0.92.4 5da689c313, 2019-01-14"><metadata
   id="metadata2065"><rdf:RDF><cc:Work
       rdf:about=""><dc:format>image/svg+xml</dc:format><dc:type
         rdf:resource="http://purl.org/dc/dcmitype/StillImage" /><dc:title></dc:title></cc:Work></rdf:RDF></metadata><defs
   id="defs2063" /><sodipodi:namedview
   pagecolor="#ffffff"
   bordercolor="#666666"
   borderopacity="1"
   objecttolerance="10"
   gridtolerance="10"
   guidetolerance="10"
   inkscape:pageopacity="0"
   inkscape:pageshadow="2"
   inkscape:window-width="1440"
   inkscape:window-height="843"
   id="namedview2061"
   showgrid="false"
   inkscape:zoom="2.7918586"
   inkscape:cx="72.896787"
   inkscape:cy="77.99375"
   inkscape:window-x="0"
   inkscape:window-y="0"
   inkscape:window-maximized="1"
   inkscape:current-layer="Layer_1" />

<g
   id="g2030">
</g>
<g
   id="g2032">
</g>
<g
   id="g2034">
</g>
<g
   id="g2036">
</g>
<g
   id="g2038">
</g>
<g
   id="g2040">
</g>
<g
   id="g2042">
</g>
<g
   id="g2044">
</g>
<g
   id="g2046">
</g>
<g
   id="g2048">
</g>
<g
   id="g2050">
</g>
<g
   id="g2052">
</g>
<g
   id="g2054">
</g>
<g
   id="g2056">
</g>
<g
   id="g2058">
</g>
<path
   style="fill:#0459a9;fill-opacity:1;stroke:#000000;stroke-width:1px;stroke-linecap:butt;stroke-linejoin:miter;stroke-opacity:0"
   d="m 111.72439,0.53813822 -54.447225,0.35791 -0.0398,57.26147478 -57.40606985,-0.91263 -0.0919,53.972607 57.73733985,0.35806 0.102,57.68696 54.901965,0.14496 -1.04405,-57.54481 58.16238,0.37804 0.21404,-54.788054 -57.73045,0.03679 -0.35819,-56.95130778"
   id="path2621"
   inkscape:connector-curvature="0"
   sodipodi:nodetypes="ccccccccccccc" /><path
   style="fill:#ffffff;fill-opacity:1;stroke:#0459a9;stroke-width:1px;stroke-linecap:butt;stroke-linejoin:miter;stroke-opacity:1"
   d="m 42.439705,89.977433 c -26.37072,-25.839675 -10.8001,-53.604812 13.7222,-51.658963 19.62321,1.557105 30.013103,14.365188 48.071095,35.683993 0,0 -7.563852,5.669079 -16.374402,4.621284 C 80.758345,77.77935 77.115265,74.565505 66.249695,63.964373 l -23.80999,26.01306"
   id="path2623"
   inkscape:connector-curvature="0"
   sodipodi:nodetypes="cscscc" /><path
   style="fill:#ffffff;fill-opacity:1;stroke:#0459a9;stroke-width:1px;stroke-linecap:butt;stroke-linejoin:miter;stroke-opacity:1"
   d="m 110.10431,74.168528 c -2.46895,2.124294 -22.307652,20.99701 -43.676875,-3.815237 0,0 -23.74006,24.521318 -25.68205,29.465323 -1.51119,3.847266 4.744031,6.361146 4.744031,6.361146 2.33725,2.4173 19.633089,-18.032061 19.633089,-18.032061 2.28652,-2.13629 3.7133,1.14591 3.63907,1.960537 0,0 -8.2077,8.454105 -10.92053,11.316634 -2.92934,3.09099 -5.33724,5.50103 -6.13644,7.37994 -2.70089,6.34979 5.05307,6.63355 5.05307,6.63355 14.68862,-12.17931 17.89224,-17.860105 20.5809,-19.172782 1.33868,-0.653579 1.58096,0.333291 1.48744,0.969708 -0.20188,1.373973 -4.00924,4.778844 -4.00924,4.778844 0,0 -11.21257,11.1267 -12.68751,14.28331 -1.21041,2.59047 -0.25004,4.41808 0.35321,5.32178 1.81813,2.72372 8.58192,-0.89762 8.58192,-0.89762 -3.26036,-14.94326 7.42847,-12.4563 7.42847,-12.4563 1.17017,-12.871646 11.040573,-7.52331 11.004563,-9.769456 -0.19881,-12.399403 9.86168,-6.541189 9.92645,-8.532804 0.49278,-15.154531 16.898052,-6.500038 20.416122,-0.506901 1.76778,3.011472 1.4113,1.801668 1.99016,1.218517 24.08295,-24.26135 11.4645,-44.409904 3.13821,-49.557082 -12.73427,-7.872117 -32.976712,-1.006928 -39.154582,6.704781 l 24.290522,26.346173"
   id="path2625"
   inkscape:connector-curvature="0"
   sodipodi:nodetypes="csscssssssscssssssssscc" /><path
   style="fill:#ffffff;fill-opacity:1;stroke:#0459a9;stroke-width:1px;stroke-linecap:butt;stroke-linejoin:miter;stroke-opacity:1"
   d="m 116.94272,104.56148 -14.8564,-15.098651 c 0.52277,-8.09895 7.39362,-5.554532 7.39362,-5.554532 l 15.35573,15.293715 c 0,0 0.0568,9.229438 -7.89295,5.359468"
   id="path2629"
   inkscape:connector-curvature="0"
   sodipodi:nodetypes="ccccc" /><path
   sodipodi:nodetypes="ccccc"
   inkscape:connector-curvature="0"
   id="path2631"
   d="M 87.562868,132.1684 72.706465,117.06975 c 0.52277,-8.09894 7.39362,-5.55453 7.39362,-5.55453 l 15.355733,15.29371 c 0,0 0.0568,9.22945 -7.89295,5.35947"
   style="fill:#ffffff;fill-opacity:1;stroke:#0459a9;stroke-width:1px;stroke-linecap:butt;stroke-linejoin:miter;stroke-opacity:1" /><path
   style="fill:#ffffff;fill-opacity:1;stroke:#0459a9;stroke-width:1px;stroke-linecap:butt;stroke-linejoin:miter;stroke-opacity:1"
   d="M 97.693848,122.79724 82.837445,107.6986 c 0.52277,-8.098952 7.393623,-5.55453 7.393623,-5.55453 l 15.355732,15.29371 c 0,0 0.0568,9.22944 -7.892952,5.35946"
   id="path2633"
   inkscape:connector-curvature="0"
   sodipodi:nodetypes="ccccc" /><path
   sodipodi:nodetypes="ccccc"
   inkscape:connector-curvature="0"
   id="path2635"
   d="M 107.57156,113.67936 92.715158,98.580714 c 0.52277,-8.09895 7.393622,-5.554532 7.393622,-5.554532 l 15.35573,15.293718 c 0,0 0.0568,9.22943 -7.89295,5.35946"
   style="fill:#ffffff;fill-opacity:1;stroke:#0459a9;stroke-width:1px;stroke-linecap:butt;stroke-linejoin:miter;stroke-opacity:1" /><path
   style="fill:#ffffff;fill-opacity:1;stroke:#0459a9;stroke-width:1px;stroke-linecap:butt;stroke-linejoin:miter;stroke-opacity:1"
   d="m 81.737555,130.64875 c -0.95331,0.95331 -7.64919,-8.73686 -8.49796,-7.88982 -5.70073,5.68909 2.46094,13.05562 8.49796,7.88982"
   id="path2637"
   inkscape:connector-curvature="0"
   sodipodi:nodetypes="csc" /></svg>